<svg width="30" height="30" viewBox="0 0 30 30" fill="none" xmlns="http://www.w3.org/2000/svg">
<path d="M15 8.33333C11.32 8.33333 8.33337 11.32 8.33337 15C8.33337 18.68 11.32 21.6667 15 21.6667C18.68 21.6667 21.6667 18.68 21.6667 15C21.6667 11.32 18.68 8.33333 15 8.33333ZM1.66671 16.3333H4.33337C5.06671 16.3333 5.66671 15.7333 5.66671 15C5.66671 14.2667 5.06671 13.6667 4.33337 13.6667H1.66671C0.933374 13.6667 0.333374 14.2667 0.333374 15C0.333374 15.7333 0.933374 16.3333 1.66671 16.3333ZM25.6667 16.3333H28.3334C29.0667 16.3333 29.6667 15.7333 29.6667 15C29.6667 14.2667 29.0667 13.6667 28.3334 13.6667H25.6667C24.9334 13.6667 24.3334 14.2667 24.3334 15C24.3334 15.7333 24.9334 16.3333 25.6667 16.3333ZM13.6667 1.66666V4.33333C13.6667 5.06666 14.2667 5.66666 15 5.66666C15.7334 5.66666 16.3334 5.06666 16.3334 4.33333V1.66666C16.3334 0.933328 15.7334 0.333328 15 0.333328C14.2667 0.333328 13.6667 0.933328 13.6667 1.66666ZM13.6667 25.6667V28.3333C13.6667 29.0667 14.2667 29.6667 15 29.6667C15.7334 29.6667 16.3334 29.0667 16.3334 28.3333V25.6667C16.3334 24.9333 15.7334 24.3333 15 24.3333C14.2667 24.3333 13.6667 24.9333 13.6667 25.6667ZM6.98671 5.10666C6.86336 4.98306 6.71684 4.88499 6.55554 4.81808C6.39424 4.75118 6.22133 4.71674 6.04671 4.71674C5.87208 4.71674 5.69917 4.75118 5.53788 4.81808C5.37658 4.88499 5.23006 4.98306 5.10671 5.10666C4.9831 5.23001 4.88504 5.37653 4.81813 5.53783C4.75122 5.69913 4.71678 5.87204 4.71678 6.04666C4.71678 6.22129 4.75122 6.3942 4.81813 6.55549C4.88504 6.71679 4.9831 6.86331 5.10671 6.98666L6.52004 8.4C7.04004 8.92 7.89337 8.92 8.40004 8.4C8.90671 7.88 8.92004 7.02666 8.40004 6.51999L6.98671 5.10666ZM23.48 21.6C23.3567 21.4764 23.2102 21.3783 23.0489 21.3114C22.8876 21.2445 22.7147 21.2101 22.54 21.2101C22.3654 21.2101 22.1925 21.2445 22.0312 21.3114C21.8699 21.3783 21.7234 21.4764 21.6 21.6C21.4764 21.7233 21.3784 21.8699 21.3115 22.0312C21.2446 22.1925 21.2101 22.3654 21.2101 22.54C21.2101 22.7146 21.2446 22.8875 21.3115 23.0488C21.3784 23.2101 21.4764 23.3566 21.6 23.48L23.0134 24.8933C23.5334 25.4133 24.3867 25.4133 24.8934 24.8933C25.017 24.77 25.115 24.6235 25.182 24.4622C25.2489 24.3009 25.2833 24.128 25.2833 23.9533C25.2833 23.7787 25.2489 23.6058 25.182 23.4445C25.115 23.2832 25.017 23.1367 24.8934 23.0133L23.48 21.6ZM24.8934 6.98666C25.017 6.86331 25.115 6.71679 25.182 6.55549C25.2489 6.3942 25.2833 6.22129 25.2833 6.04666C25.2833 5.87204 25.2489 5.69913 25.182 5.53783C25.115 5.37653 25.017 5.23001 24.8934 5.10666C24.77 4.98306 24.6235 4.88499 24.4622 4.81808C24.3009 4.75118 24.128 4.71674 23.9534 4.71674C23.7787 4.71674 23.6058 4.75118 23.4445 4.81808C23.2832 4.88499 23.1367 4.98306 23.0134 5.10666L21.6 6.51999C21.08 7.03999 21.08 7.89333 21.6 8.4C22.12 8.90666 22.9734 8.92 23.48 8.4L24.8934 6.98666ZM8.40004 23.48C8.52365 23.3566 8.62171 23.2101 8.68862 23.0488C8.75553 22.8875 8.78997 22.7146 8.78997 22.54C8.78997 22.3654 8.75553 22.1925 8.68862 22.0312C8.62171 21.8699 8.52365 21.7233 8.40004 21.6C8.27669 21.4764 8.13017 21.3783 7.96887 21.3114C7.80758 21.2445 7.63467 21.2101 7.46004 21.2101C7.28542 21.2101 7.11251 21.2445 6.95121 21.3114C6.78991 21.3783 6.64339 21.4764 6.52004 21.6L5.10671 23.0133C4.58671 23.5333 4.58671 24.3867 5.10671 24.8933C5.62671 25.4 6.48004 25.4133 6.98671 24.8933L8.40004 23.48Z" fill="#C6C7C1"/>
</svg>
