<svg width="160" height="40" viewBox="0 0 160 40" fill="none" xmlns="http://www.w3.org/2000/svg">
<g clip-path="url(#clip0_1_211)">
<path d="M10.9359 0H0V10.9188H10.9359V0Z" fill="#40BA21"/>
<path d="M40.0811 0H29.1487V29.0847H25.5048V0H14.5725V39.9963H23.679V40H34.615V39.9963H40.0811V0Z" fill="#40BA21"/>
<path d="M10.9359 14.5387H0V39.9963H10.9359V14.5387Z" fill="#40BA21"/>
<path d="M63.0453 7.08953L59.0649 14.4777C58.682 15.189 58.219 15.7269 57.6757 16.0914C57.1416 16.4559 56.5582 16.6382 55.926 16.6382C55.4362 16.6382 54.9287 16.5315 54.4033 16.3181L54.9244 14.6778C55.2982 14.7934 55.61 14.8511 55.8594 14.8511C56.1265 14.8511 56.3669 14.7889 56.5805 14.6644C56.7943 14.5311 56.9901 14.3266 57.1682 14.051L57.2483 13.9443L53.5618 7.08953H55.8726L58.357 12.1039L60.9215 7.08953H63.0453Z" fill="#40BA21"/>
<path d="M72.6489 7.08953V16.4248H70.485V12.5974H66.2376V16.4248H64.0737V7.08953H66.2376V10.7703H70.485V7.08953H72.6489Z" fill="#40BA21"/>
<path d="M74.9915 7.08953H77.1418V13.1708L81.603 7.08953H83.6335V16.4248H81.4961V10.3569L77.0349 16.4248H74.9915V7.08953Z" fill="#40BA21"/>
<path d="M92.4395 11.5571C93.0094 11.726 93.4459 12.0017 93.7486 12.384C94.0513 12.7663 94.2028 13.2375 94.2028 13.7976C94.2028 14.6244 93.8866 15.269 93.2543 15.7313C92.6311 16.1937 91.7362 16.4248 90.5696 16.4248H85.9614V7.08953H90.3157C91.4022 7.08953 92.2482 7.29845 92.8537 7.71632C93.4591 8.13417 93.7619 8.72988 93.7619 9.50338C93.7619 9.96568 93.6462 10.3747 93.4146 10.7303C93.1832 11.077 92.8582 11.3527 92.4395 11.5571ZM88.1118 10.957H90.1287C90.6007 10.957 90.957 10.8637 91.1974 10.677C91.4377 10.4814 91.5579 10.1969 91.5579 9.82343C91.5579 9.4589 91.4332 9.17885 91.1841 8.98325C90.9437 8.78765 90.5919 8.68985 90.1287 8.68985H88.1118V10.957ZM90.4895 14.8245C91.5046 14.8245 92.0121 14.4244 92.0121 13.6242C92.0121 12.8507 91.5046 12.464 90.4895 12.464H88.1118V14.8245H90.4895Z" fill="#40BA21"/>
<path d="M103.153 14.6911V16.4248H95.9138V7.08953H102.98V8.82323H98.0642V10.8503H102.405V12.5307H98.0642V14.6911H103.153Z" fill="#40BA21"/>
<path d="M108.948 7.08953C109.776 7.08953 110.493 7.22733 111.099 7.50295C111.713 7.77855 112.185 8.16975 112.515 8.67653C112.844 9.1833 113.009 9.78343 113.009 10.4769C113.009 11.1615 112.844 11.7616 112.515 12.2773C112.185 12.784 111.713 13.1753 111.099 13.4509C110.493 13.7176 109.776 13.851 108.948 13.851H107.065V16.4248H104.901V7.08953H108.948ZM108.828 12.0906C109.478 12.0906 109.972 11.9528 110.311 11.6771C110.649 11.3926 110.818 10.9926 110.818 10.4769C110.818 9.95235 110.649 9.55228 110.311 9.27665C109.972 8.99215 109.478 8.8499 108.828 8.8499H107.065V12.0906H108.828Z" fill="#40BA21"/>
<path d="M118.988 16.5849C118.035 16.5849 117.171 16.3804 116.397 15.9714C115.631 15.5535 115.025 14.9801 114.58 14.251C114.144 13.5131 113.926 12.6818 113.926 11.7572C113.926 10.8325 114.144 10.0057 114.58 9.27665C115.025 8.53873 115.631 7.96528 116.397 7.5563C117.171 7.13843 118.039 6.9295 119.001 6.9295C119.811 6.9295 120.542 7.07175 121.192 7.35625C121.851 7.64075 122.403 8.04973 122.848 8.58318L121.459 9.86345C120.827 9.1344 120.043 8.76988 119.108 8.76988C118.529 8.76988 118.013 8.8988 117.559 9.15663C117.105 9.40558 116.748 9.75675 116.49 10.2102C116.241 10.6636 116.116 11.1793 116.116 11.7572C116.116 12.3351 116.241 12.8508 116.49 13.3042C116.748 13.7576 117.105 14.1132 117.559 14.3711C118.013 14.62 118.529 14.7445 119.108 14.7445C120.043 14.7445 120.827 14.3755 121.459 13.6376L122.848 14.9179C122.403 15.4602 121.851 15.8736 121.192 16.1581C120.533 16.4426 119.798 16.5849 118.988 16.5849Z" fill="#40BA21"/>
<path d="M124.258 7.08953H126.409V13.1708L130.87 7.08953H132.9V16.4248H130.763V10.3569L126.302 16.4248H124.258V7.08953Z" fill="#40BA21"/>
<path d="M142.375 8.8499H139.382V16.4248H137.245V8.8499H134.267V7.08953H142.375V8.8499Z" fill="#40BA21"/>
<path d="M150.973 14.6911V16.4248H143.733V7.08953H150.799V8.82323H145.884V10.8503H150.225V12.5307H145.884V14.6911H150.973Z" fill="#40BA21"/>
<path d="M159.866 8.8499H156.874V16.4248H154.737V8.8499H151.759V7.08953H159.866V8.8499Z" fill="#40BA21"/>
<path d="M54.6035 23.3329H56.7541V29.4143L61.2153 23.3329H63.2455V32.6683H61.1084V26.6003L56.6472 32.6683H54.6035V23.3329Z" fill="#40BA21"/>
<path d="M74.1489 23.3329V32.6683H71.985V28.8408H67.7374V32.6683H65.5737V23.3329H67.7374V27.0138H71.985V23.3329H74.1489Z" fill="#40BA21"/>
<path d="M85.0666 23.3329V32.6683H82.9027V28.8408H78.6551V32.6683H76.4915V23.3329H78.6551V27.0138H82.9027V23.3329H85.0666Z" fill="#40BA21"/>
<path d="M91.8706 32.8282C90.8999 32.8282 90.0227 32.6192 89.2393 32.2015C88.4646 31.7835 87.8546 31.21 87.4092 30.481C86.973 29.743 86.7549 28.9162 86.7549 28.0005C86.7549 27.0847 86.973 26.2622 87.4092 25.5332C87.8546 24.7954 88.4646 24.2175 89.2393 23.7996C90.0227 23.3818 90.8999 23.1728 91.8706 23.1728C92.8411 23.1728 93.7138 23.3818 94.4885 23.7996C95.2632 24.2175 95.8731 24.7954 96.3183 25.5332C96.7635 26.2622 96.9864 27.0847 96.9864 28.0005C96.9864 28.9162 96.7635 29.743 96.3183 30.481C95.8731 31.21 95.2632 31.7835 94.4885 32.2015C93.7138 32.6192 92.8411 32.8282 91.8706 32.8282ZM91.8706 30.9877C92.4225 30.9877 92.9213 30.8632 93.3665 30.6145C93.8117 30.3565 94.159 30.001 94.4083 29.5475C94.6665 29.094 94.7957 28.5785 94.7957 28.0005C94.7957 27.4225 94.6665 26.907 94.4083 26.4535C94.159 26 93.8117 25.649 93.3665 25.4C92.9213 25.1422 92.4225 25.0132 91.8706 25.0132C91.3185 25.0132 90.8197 25.1422 90.3745 25.4C89.9293 25.649 89.5775 26 89.3194 26.4535C89.07 26.907 88.9453 27.4225 88.9453 28.0005C88.9453 28.5785 89.07 29.094 89.3194 29.5475C89.5775 30.001 89.9293 30.3565 90.3745 30.6145C90.8197 30.8632 91.3185 30.9877 91.8706 30.9877Z" fill="#40BA21"/>
<path d="M107.175 23.3329V32.6683H105.024V25.0933H100.803V32.6683H98.6531V23.3329H107.175Z" fill="#40BA21"/>
<path d="M113.954 32.8282C112.983 32.8282 112.106 32.6192 111.323 32.2015C110.548 31.7835 109.938 31.21 109.493 30.481C109.056 29.743 108.838 28.9162 108.838 28.0005C108.838 27.0847 109.056 26.2622 109.493 25.5332C109.938 24.7954 110.548 24.2175 111.323 23.7996C112.106 23.3818 112.983 23.1728 113.954 23.1728C114.925 23.1728 115.797 23.3818 116.572 23.7996C117.347 24.2175 117.957 24.7954 118.402 25.5332C118.847 26.2622 119.07 27.0847 119.07 28.0005C119.07 28.9162 118.847 29.743 118.402 30.481C117.957 31.21 117.347 31.7835 116.572 32.2015C115.797 32.6192 114.925 32.8282 113.954 32.8282ZM113.954 30.9877C114.506 30.9877 115.005 30.8632 115.45 30.6145C115.895 30.3565 116.242 30.001 116.492 29.5475C116.75 29.094 116.879 28.5785 116.879 28.0005C116.879 27.4225 116.75 26.907 116.492 26.4535C116.242 26 115.895 25.649 115.45 25.4C115.005 25.1422 114.506 25.0132 113.954 25.0132C113.402 25.0132 112.903 25.1422 112.458 25.4C112.013 25.649 111.661 26 111.403 26.4535C111.154 26.907 111.029 27.4225 111.029 28.0005C111.029 28.5785 111.154 29.094 111.403 29.5475C111.661 30.001 112.013 30.3565 112.458 30.6145C112.903 30.8632 113.402 30.9877 113.954 30.9877Z" fill="#40BA21"/>
<path d="M128.811 23.3329V32.6683H126.673V25.0933H123.468L123.401 27.0403C123.356 28.365 123.249 29.4408 123.08 30.2678C122.911 31.0855 122.626 31.7168 122.225 32.1615C121.834 32.597 121.282 32.8148 120.569 32.8148C120.275 32.8148 119.919 32.766 119.5 32.6683L119.634 30.841C119.75 30.8768 119.879 30.8945 120.022 30.8945C120.538 30.8945 120.899 30.5923 121.103 29.9875C121.308 29.3743 121.437 28.4185 121.491 27.1203L121.624 23.3329H128.811Z" fill="#40BA21"/>
<path d="M131.146 23.3329H133.296V29.4143L137.757 23.3329H139.788V32.6683H137.651V26.6003L133.189 32.6683H131.146V23.3329Z" fill="#40BA21"/>
<path d="M146.537 32.8282C145.584 32.8282 144.72 32.6237 143.945 32.2147C143.18 31.797 142.574 31.2235 142.129 30.4945C141.693 29.7565 141.474 28.9252 141.474 28.0005C141.474 27.076 141.693 26.249 142.129 25.52C142.574 24.7821 143.18 24.2086 143.945 23.7996C144.72 23.3818 145.589 23.1728 146.55 23.1728C147.361 23.1728 148.091 23.3151 148.741 23.5996C149.4 23.8841 149.952 24.2931 150.397 24.8265L149.008 26.1067C148.376 25.3777 147.592 25.0132 146.657 25.0132C146.078 25.0132 145.562 25.1422 145.108 25.4C144.654 25.649 144.297 26 144.039 26.4535C143.79 26.907 143.665 27.4225 143.665 28.0005C143.665 28.5785 143.79 29.094 144.039 29.5475C144.297 30.001 144.654 30.3565 145.108 30.6145C145.562 30.8632 146.078 30.9877 146.657 30.9877C147.592 30.9877 148.376 30.6187 149.008 29.881L150.397 31.1612C149.952 31.7035 149.4 32.117 148.741 32.4015C148.082 32.686 147.347 32.8282 146.537 32.8282Z" fill="#40BA21"/>
</g>
<defs>
<clipPath id="clip0_1_211">
<rect width="160" height="40" fill="white"/>
</clipPath>
</defs>
</svg>
